<?xml version="1.0" encoding="UTF-8"?>
<svg version="1.1" xmlns="http://www.w3.org/2000/svg" width="288" height="288">
<path d="M0 0 C95.04 0 190.08 0 288 0 C288 95.04 288 190.08 288 288 C192.96 288 97.92 288 0 288 C0 192.96 0 97.92 0 0 Z " fill="#FCFBFC" transform="translate(0,0)"/>
<path d="M0 0 C25.08 0 50.16 0 76 0 C76 23.43 76 46.86 76 71 C99.43 71 122.86 71 147 71 C147 96.41 147 121.82 147 148 C123.9 148 100.8 148 77 148 C77 171.43 77 194.86 77 219 C51.59 219 26.18 219 0 219 C0 195.57 0 172.14 0 148 C-23.76 148 -47.52 148 -72 148 C-72 122.59 -72 97.18 -72 71 C-48.24 71 -24.48 71 0 71 C0 47.57 0 24.14 0 0 Z " fill="#E61B26" transform="translate(108,19)"/>
<path d="M0 0 C1.27864572 2.55729144 0.8209953 3.30551532 0.03125 6.0078125 C-0.2064209 6.8217749 -0.4440918 7.6357373 -0.68896484 8.47436523 C-1.09042725 9.78642944 -1.09042725 9.78642944 -1.5 11.125 C-1.77408691 12.02355713 -2.04817383 12.92211426 -2.33056641 13.84790039 C-13.35322017 48.99778018 -37.03890186 77.51975855 -69.60791016 94.81396484 C-97.09349949 108.44174531 -129.62929401 113.05177942 -159.10986328 103.30224609 C-163.50305145 101.74229288 -167.75338506 99.92614321 -172 98 C-172.8765625 97.62230469 -173.753125 97.24460937 -174.65625 96.85546875 C-182.43350921 93.28247467 -189.21090649 88.1503468 -196 83 C-197.13115234 82.15308594 -197.13115234 82.15308594 -198.28515625 81.2890625 C-207.57443314 73.77371323 -216.63774021 62.11141644 -221 51 C-220.67 50.34 -220.34 49.68 -220 49 C-219.63390625 49.47308594 -219.2678125 49.94617188 -218.890625 50.43359375 C-203.47155504 69.26688634 -177.74883325 80.01788464 -154 83 C-149.30861137 83.28904784 -144.63689979 83.33421197 -139.9375 83.3125 C-138.01659546 83.30404053 -138.01659546 83.30404053 -136.05688477 83.29541016 C-126.0915292 83.16839887 -116.66941966 82.4195288 -107 80 C-106.20335937 79.80132324 -105.40671875 79.60264648 -104.5859375 79.39794922 C-63.24066279 68.71761993 -24.65109945 39.21285397 -1.875 3.1875 C-1.25625 2.135625 -0.6375 1.08375 0 0 Z " fill="#053C68" transform="translate(261,180)"/>
<path d="M0 0 C0.61875 0.639375 1.2375 1.27875 1.875 1.9375 C6.07201536 6.14668062 10.56422757 10.04656399 15 14 C14.01 14.495 14.01 14.495 13 15 C13.165 15.763125 13.33 16.52625 13.5 17.3125 C14 20 14 20 14 23 C0 6.61928934 0 6.61928934 0 0 Z " fill="#0B3461" transform="translate(40,229)"/>
<path d="M0 0 C1.68550367 3.37100733 -0.31136964 6.72014632 -1.4375 10.125 C-1.68048828 10.87910156 -1.92347656 11.63320312 -2.17382812 12.41015625 C-2.77595819 14.27557879 -3.38713463 16.13807683 -4 18 C-5 15 -5 15 -5 13 C-5.99 12.67 -6.98 12.34 -8 12 C-5.36 8.04 -2.72 4.08 0 0 Z " fill="#183460" transform="translate(261,180)"/>
<path d="M0 0 C3.875 1.75 3.875 1.75 5 4 C4.34 4 3.68 4 3 4 C3.2475 5.1446875 3.2475 5.1446875 3.5 6.3125 C4 9 4 9 4 12 C-1 6.25 -1 6.25 -1 4 C-0.34 4 0.32 4 1 4 C0.67 2.68 0.34 1.36 0 0 Z " fill="#0A2C5A" transform="translate(50,240)"/>
<path d="M0 0 C0.99 0.33 1.98 0.66 3 1 C0.03 3.64 -2.94 6.28 -6 9 C-6.66 8.67 -7.32 8.34 -8 8 C-5.36 5.36 -2.72 2.72 0 0 Z " fill="#0C2A58" transform="translate(230,217)"/>
<path d="M0 0 C1.0326802 2.78823655 1.04509293 3.8677274 0.0625 6.75 C-0.288125 7.4925 -0.63875 8.235 -1 9 C-2 6 -2 6 -2 4 C-2.99 3.67 -3.98 3.34 -5 3 C-3.35 2.01 -1.7 1.02 0 0 Z " fill="#072352" transform="translate(258,189)"/>
<path d="M0 0 C4.875 4.75 4.875 4.75 6 7 C5.01 8.485 5.01 8.485 4 10 C3.32845067 8.71086513 2.66291141 7.41859796 2 6.125 C1.62875 5.40570313 1.2575 4.68640625 0.875 3.9453125 C0 2 0 2 0 0 Z " fill="#1F3860" transform="translate(40,229)"/>
</svg>
